{
    "asset" : {
        "generator" : "Khronos glTF Blender I/O v1.2.75",
        "version" : "2.0"
    },
    "scene" : 0,
    "scenes" : [
        {
            "name" : "Scene",
            "nodes" : [
                0,
                1,
                2,
                3,
                4
            ]
        }
    ],
    "nodes" : [
        {
            "mesh" : 0,
            "name" : "table",
            "rotation" : [
                0,
                0,
                -0.7069303393363953,
                0.7072831988334656
            ],
            "scale" : [
                0.15481990575790405,
                1.2656704187393188,
                1.2840708494186401
            ],
            "translation" : [
                -0.0037090182304382324,
                1.599453091621399,
                0.006337308324873447
            ]
        },
        {
            "name" : "Light",
            "rotation" : [
                0.16907575726509094,
                0.7558803558349609,
                -0.27217137813568115,
                0.570947527885437
            ],
            "translation" : [
                4.076245307922363,
                5.903861999511719,
                -1.0054539442062378
            ]
        },
        {
            "name" : "Camera",
            "rotation" : [
                0.483536034822464,
                0.33687159419059753,
                -0.20870360732078552,
                0.7804827094078064
            ],
            "translation" : [
                7.358891487121582,
                4.958309173583984,
                6.925790786743164
            ]
        },
        {
            "mesh" : 1,
            "name" : "ball",
            "translation" : [
                -0.0003424510359764099,
                2.1533122062683105,
                0.004202738404273987
            ]
        },
        {
            "mesh" : 2,
            "name" : "cube",
            "translation" : [
                -0.009876120835542679,
                1.9952707290649414,
                -0.016367647796869278
            ]
        }
    ],
    "materials" : [
        {
            "doubleSided" : true,
            "emissiveFactor" : [
                0,
                0,
                0
            ],
            "name" : "Material",
            "pbrMetallicRoughness" : {
                "baseColorFactor" : [
                    0.8000000715255737,
                    0.75101637840271,
                    0.006356436759233475,
                    1
                ],
                "metallicFactor" : 0,
                "roughnessFactor" : 0.4000000059604645
            }
        },
        {
            "doubleSided" : true,
            "emissiveFactor" : [
                0,
                0,
                0
            ],
            "name" : "Materia\u0142.001",
            "pbrMetallicRoughness" : {
                "baseColorFactor" : [
                    0.023863844573497772,
                    0.5326296091079712,
                    0.8000000715255737,
                    1
                ],
                "metallicFactor" : 0,
                "roughnessFactor" : 0.5
            }
        },
        {
            "doubleSided" : true,
            "emissiveFactor" : [
                0,
                0,
                0
            ],
            "name" : "Materia\u0142.002",
            "pbrMetallicRoughness" : {
                "baseColorFactor" : [
                    0.8000000715255737,
                    0.012013687752187252,
                    0.02024228870868683,
                    1
                ],
                "metallicFactor" : 0,
                "roughnessFactor" : 0.5
            }
        }
    ],
    "meshes" : [
        {
            "name" : "Cube",
            "primitives" : [
                {
                    "attributes" : {
                        "POSITION" : 0,
                        "NORMAL" : 1,
                        "TEXCOORD_0" : 2
                    },
                    "indices" : 3,
                    "material" : 0
                }
            ]
        },
        {
            "name" : "Kula",
            "primitives" : [
                {
                    "attributes" : {
                        "POSITION" : 4,
                        "NORMAL" : 5,
                        "TEXCOORD_0" : 6
                    },
                    "indices" : 7,
                    "material" : 1
                }
            ]
        },
        {
            "name" : "Kostka",
            "primitives" : [
                {
                    "attributes" : {
                        "POSITION" : 8,
                        "NORMAL" : 9,
                        "TEXCOORD_0" : 10
                    },
                    "indices" : 11,
                    "material" : 2
                }
            ]
        }
    ],
    "accessors" : [
        {
            "bufferView" : 0,
            "componentType" : 5126,
            "count" : 209,
            "max" : [
                10.343578338623047,
                1,
                1
            ],
            "min" : [
                -1,
                -1.000137448310852,
                -1
            ],
            "type" : "VEC3"
        },
        {
            "bufferView" : 1,
            "componentType" : 5126,
            "count" : 209,
            "type" : "VEC3"
        },
        {
            "bufferView" : 2,
            "componentType" : 5126,
            "count" : 209,
            "type" : "VEC2"
        },
        {
            "bufferView" : 3,
            "componentType" : 5123,
            "count" : 1062,
            "type" : "SCALAR"
        },
        {
            "bufferView" : 4,
            "componentType" : 5126,
            "count" : 559,
            "max" : [
                0.5000001192092896,
                0.5,
                0.5000001788139343
            ],
            "min" : [
                -0.49999991059303284,
                -0.5,
                -0.5
            ],
            "type" : "VEC3"
        },
        {
            "bufferView" : 5,
            "componentType" : 5126,
            "count" : 559,
            "type" : "VEC3"
        },
        {
            "bufferView" : 6,
            "componentType" : 5126,
            "count" : 559,
            "type" : "VEC2"
        },
        {
            "bufferView" : 7,
            "componentType" : 5123,
            "count" : 2880,
            "type" : "SCALAR"
        },
        {
            "bufferView" : 8,
            "componentType" : 5126,
            "count" : 24,
            "max" : [
                0.25,
                0.25,
                0.25
            ],
            "min" : [
                -0.25,
                -0.25,
                -0.25
            ],
            "type" : "VEC3"
        },
        {
            "bufferView" : 9,
            "componentType" : 5126,
            "count" : 24,
            "type" : "VEC3"
        },
        {
            "bufferView" : 10,
            "componentType" : 5126,
            "count" : 24,
            "type" : "VEC2"
        },
        {
            "bufferView" : 11,
            "componentType" : 5123,
            "count" : 36,
            "type" : "SCALAR"
        }
    ],
    "bufferViews" : [
        {
            "buffer" : 0,
            "byteLength" : 2508,
            "byteOffset" : 0
        },
        {
            "buffer" : 0,
            "byteLength" : 2508,
            "byteOffset" : 2508
        },
        {
            "buffer" : 0,
            "byteLength" : 1672,
            "byteOffset" : 5016
        },
        {
            "buffer" : 0,
            "byteLength" : 2124,
            "byteOffset" : 6688
        },
        {
            "buffer" : 0,
            "byteLength" : 6708,
            "byteOffset" : 8812
        },
        {
            "buffer" : 0,
            "byteLength" : 6708,
            "byteOffset" : 15520
        },
        {
            "buffer" : 0,
            "byteLength" : 4472,
            "byteOffset" : 22228
        },
        {
            "buffer" : 0,
            "byteLength" : 5760,
            "byteOffset" : 26700
        },
        {
            "buffer" : 0,
            "byteLength" : 288,
            "byteOffset" : 32460
        },
        {
            "buffer" : 0,
            "byteLength" : 288,
            "byteOffset" : 32748
        },
        {
            "buffer" : 0,
            "byteLength" : 192,
            "byteOffset" : 33036
        },
        {
            "buffer" : 0,
            "byteLength" : 72,
            "byteOffset" : 33228
        }
    ],
    "buffers" : [
        {
            "byteLength" : 33300,
            "uri" : "data:application/octet-stream;base64,"
        }
    ]
}
